<svg width="104" height="14" viewBox="0 0 104 14" fill="none" xmlns="http://www.w3.org/2000/svg">
<path d="M0.598 1.1H2.808V13H0.598V1.1ZM16.6007 1.1V13H14.7817L8.21971 4.942V13H6.02671V1.1H7.84571L14.4077 9.158V1.1H16.6007ZM23.4784 13.17C22.5604 13.17 21.6707 13.0397 20.8094 12.779C19.9594 12.5183 19.2851 12.1727 18.7864 11.742L19.5514 10.025C20.0387 10.4103 20.6337 10.7277 21.3364 10.977C22.0504 11.215 22.7644 11.334 23.4784 11.334C24.3624 11.334 25.0197 11.1923 25.4504 10.909C25.8924 10.6257 26.1134 10.2517 26.1134 9.787C26.1134 9.447 25.9887 9.16933 25.7394 8.954C25.5014 8.72733 25.1954 8.55167 24.8214 8.427C24.4474 8.30233 23.9374 8.16067 23.2914 8.002C22.3847 7.78667 21.6481 7.57133 21.0814 7.356C20.5261 7.14067 20.0444 6.80633 19.6364 6.353C19.2397 5.88833 19.0414 5.265 19.0414 4.483C19.0414 3.82567 19.2171 3.23067 19.5684 2.698C19.9311 2.154 20.4694 1.72333 21.1834 1.406C21.9087 1.08867 22.7927 0.929999 23.8354 0.929999C24.5607 0.929999 25.2747 1.02067 25.9774 1.202C26.6801 1.38333 27.2864 1.644 27.7964 1.984L27.0994 3.701C26.5781 3.395 26.0341 3.16267 25.4674 3.004C24.9007 2.84533 24.3511 2.766 23.8184 2.766C22.9457 2.766 22.2941 2.91333 21.8634 3.208C21.4441 3.50267 21.2344 3.89367 21.2344 4.381C21.2344 4.721 21.3534 4.99867 21.5914 5.214C21.8407 5.42933 22.1524 5.59933 22.5264 5.724C22.9004 5.84867 23.4104 5.99033 24.0564 6.149C24.9404 6.353 25.6657 6.56833 26.2324 6.795C26.7991 7.01033 27.2807 7.34467 27.6774 7.798C28.0854 8.25133 28.2894 8.86333 28.2894 9.634C28.2894 10.2913 28.1081 10.8863 27.7454 11.419C27.3941 11.9517 26.8557 12.3767 26.1304 12.694C25.4051 13.0113 24.5211 13.17 23.4784 13.17ZM32.7288 2.97H28.7848V1.1H38.8828V2.97H34.9388V13H32.7288V2.97ZM47.6617 10.246H41.7117L40.5387 13H38.2607L43.6157 1.1H45.7917L51.1637 13H48.8517L47.6617 10.246ZM46.9307 8.512L44.6867 3.31L42.4597 8.512H46.9307ZM60.6371 6.914H62.7281V11.657C62.1161 12.1443 61.4021 12.5183 60.5861 12.779C59.7701 13.0397 58.9314 13.17 58.0701 13.17C56.8574 13.17 55.7638 12.9093 54.7891 12.388C53.8144 11.8553 53.0494 11.1243 52.4941 10.195C51.9388 9.26567 51.6611 8.21733 51.6611 7.05C51.6611 5.88267 51.9388 4.83433 52.4941 3.905C53.0494 2.97567 53.8144 2.25033 54.7891 1.729C55.7751 1.19633 56.8801 0.929999 58.1041 0.929999C59.1014 0.929999 60.0081 1.09433 60.8241 1.423C61.6401 1.75167 62.3258 2.23333 62.8811 2.868L61.4871 4.228C60.5804 3.32133 59.4868 2.868 58.2061 2.868C57.3674 2.868 56.6194 3.04367 55.9621 3.395C55.3161 3.74633 54.8061 4.23933 54.4321 4.874C54.0694 5.50867 53.8881 6.234 53.8881 7.05C53.8881 7.84333 54.0694 8.55733 54.4321 9.192C54.8061 9.82667 55.3161 10.3253 55.9621 10.688C56.6194 11.0507 57.3618 11.232 58.1891 11.232C59.1184 11.232 59.9344 11.028 60.6371 10.62V6.914ZM73.4289 13L70.9979 9.515C70.8959 9.52633 70.7429 9.532 70.5389 9.532H67.8529V13H65.6429V1.1H70.5389C71.5703 1.1 72.4656 1.27 73.2249 1.61C73.9956 1.95 74.5849 2.43733 74.9929 3.072C75.4009 3.70667 75.6049 4.46033 75.6049 5.333C75.6049 6.22833 75.3839 6.999 74.9419 7.645C74.5113 8.291 73.8879 8.77267 73.0719 9.09L75.8089 13H73.4289ZM73.3779 5.333C73.3779 4.57367 73.1286 3.99 72.6299 3.582C72.1313 3.174 71.4003 2.97 70.4369 2.97H67.8529V7.713H70.4369C71.4003 7.713 72.1313 7.509 72.6299 7.101C73.1286 6.68167 73.3779 6.09233 73.3779 5.333ZM85.7955 10.246H79.8455L78.6725 13H76.3945L81.7495 1.1H83.9255L89.2975 13H86.9855L85.7955 10.246ZM85.0645 8.512L82.8205 3.31L80.5935 8.512H85.0645ZM101.742 13L101.725 5.112L97.8149 11.64H96.8289L92.9189 5.214V13H90.8109V1.1H92.6299L97.3559 8.988L101.997 1.1H103.816L103.833 13H101.742Z" fill="white"/>
</svg>
